<svg id="Huge-icon_time_and_date_solid_calendar_01" data-name="Huge-icon/time and date/solid/calendar 01" xmlns="http://www.w3.org/2000/svg" width="18" height="20.75" viewBox="0 0 18 20.75">
  <g id="calendar">
    <path id="combo_sape" data-name="combo sape" d="M5.75.75a.75.75,0,0,0-1.5,0v1.5H4a4,4,0,0,0-4,4V7H18V6.25a4,4,0,0,0-4-4h-.25V.75a.75.75,0,0,0-1.5,0v1.5H5.75ZM0,8.5H18v8.25a4,4,0,0,1-4,4H4a4,4,0,0,1-4-4Zm9,6.25a1,1,0,1,0-1-1A1,1,0,0,0,9,14.75Zm5-1a1,1,0,1,1-1-1A1,1,0,0,1,14,13.75Zm-9,1a1,1,0,1,0-1-1A1,1,0,0,0,5,14.75Z" fill="#62c3e3" fill-rule="evenodd"/>
  </g>
</svg>
