<svg id="Huge-icon_communication_solid_call" data-name="Huge-icon/communication/solid/call" xmlns="http://www.w3.org/2000/svg" width="18" height="18" viewBox="0 0 18 18">
  <g id="call">
    <path id="Rectangle_77" data-name="Rectangle 77" d="M18,16V14.354A2,2,0,0,0,16.743,12.5l-2.034-.814a2,2,0,0,0-2.532.962L12,13a9.782,9.782,0,0,1-4.5-2.5A9.782,9.782,0,0,1,5,6l.354-.177a2,2,0,0,0,.963-2.532L5.5,1.257A2,2,0,0,0,3.646,0H2A2,2,0,0,0,0,2,16,16,0,0,0,16,18,2,2,0,0,0,18,16Z" fill="#62c3e3"/>
  </g>
</svg>
