<svg id="Huge-icon_editor_solid_document-text" data-name="Huge-icon/editor/solid/document-text" xmlns="http://www.w3.org/2000/svg" width="18" height="20" viewBox="0 0 18 20">
  <g id="document-text">
    <path id="Subtract" d="M4,0A4,4,0,0,0,0,4V16a4,4,0,0,0,4,4H14a4,4,0,0,0,4-4V5.657a4,4,0,0,0-1.172-2.828L15.172,1.172A4,4,0,0,0,12.343,0ZM5,4.25a.75.75,0,0,0,0,1.5h8a.75.75,0,0,0,0-1.5ZM4.25,10A.75.75,0,0,1,5,9.25h8a.75.75,0,0,1,0,1.5H5A.75.75,0,0,1,4.25,10ZM5,14.25a.75.75,0,0,0,0,1.5H9a.75.75,0,0,0,0-1.5Z" fill="#62c3e3" fill-rule="evenodd"/>
  </g>
</svg>
